# MagicaVoxel @ Ephtracy

# group
g whole elevator

# material
mtllib whole elevator.mtl
usemtl palette

# normals
vn -1 0 0
vn 1 0 0
vn 0 0 1
vn 0 0 -1
vn 0 -1 0
vn 0 1 0

# texcoords
vt 0.123047 0.5
vt 0.283203 0.5
vt 0.408203 0.5
vt 0.439453 0.5
vt 0.751953 0.5
vt 0.775391 0.5
vt 0.814453 0.5

# verts
v -20 0 20
v -20 0 -20
v -20 1 11
v -20 1 -11
v -20 34 11
v -20 34 7
v -20 34 -7
v -20 34 -11
v -20 35 6
v -20 35 1
v -20 35 -2
v -20 35 -6
v -20 36 1
v -20 36 -0
v -20 36 -1
v -20 36 -2
v -20 37 -1
v -20 37 -2
v -20 38 6
v -20 38 -0
v -20 38 -2
v -20 38 -6
v -20 39 7
v -20 39 6
v -20 39 -6
v -20 39 -7
v -20 40 20
v -20 40 7
v -20 40 6
v -20 40 -6
v -20 40 -7
v -20 40 -20
v -18 15 -17
v -18 15 -18
v -18 15 -19
v -18 17 -17
v -18 17 -18
v -18 17 -19
v 17 15 19
v 17 15 18
v 17 15 17
v 17 15 -17
v 17 15 -18
v 17 15 -19
v 17 17 19
v 17 17 18
v 17 17 17
v 17 17 -17
v 17 17 -18
v 17 17 -19
v 19 1 19
v 19 1 -19
v 19 15 18
v 19 15 17
v 19 15 -17
v 19 15 -18
v 19 16 -17
v 19 16 -18
v 19 17 18
v 19 17 17
v 19 39 19
v 19 39 -19
v -19 1 19
v -19 1 11
v -19 1 -11
v -19 1 -19
v -19 15 19
v -19 15 17
v -19 17 19
v -19 17 17
v -19 19 -12
v -19 19 -13
v -19 19 -14
v -19 19 -15
v -19 19 -16
v -19 19 -17
v -19 20 -12
v -19 20 -13
v -19 20 -14
v -19 20 -15
v -19 20 -16
v -19 20 -17
v -19 21 -12
v -19 21 -13
v -19 21 -14
v -19 21 -15
v -19 21 -16
v -19 21 -17
v -19 22 -12
v -19 22 -13
v -19 22 -14
v -19 22 -15
v -19 22 -16
v -19 22 -17
v -19 23 -12
v -19 23 -13
v -19 23 -14
v -19 23 -15
v -19 23 -16
v -19 23 -17
v -19 24 -12
v -19 24 -13
v -19 24 -14
v -19 24 -15
v -19 24 -16
v -19 24 -17
v -19 25 -12
v -19 25 -13
v -19 25 -14
v -19 25 -15
v -19 25 -16
v -19 25 -17
v -19 26 -12
v -19 26 -13
v -19 26 -14
v -19 26 -15
v -19 26 -16
v -19 26 -17
v -19 27 -12
v -19 27 -13
v -19 27 -14
v -19 27 -15
v -19 27 -16
v -19 27 -17
v -19 28 -12
v -19 28 -13
v -19 28 -14
v -19 28 -15
v -19 28 -16
v -19 28 -17
v -19 29 -12
v -19 29 -13
v -19 29 -14
v -19 29 -15
v -19 29 -16
v -19 29 -17
v -19 30 -12
v -19 30 -13
v -19 30 -14
v -19 30 -15
v -19 30 -16
v -19 30 -17
v -19 34 11
v -19 34 7
v -19 34 -7
v -19 34 -11
v -19 39 19
v -19 39 7
v -19 39 -7
v -19 39 -19
v -18 15 19
v -18 15 18
v -18 17 19
v -18 17 18
v -18 19 -12
v -18 19 -13
v -18 19 -14
v -18 19 -15
v -18 19 -16
v -18 19 -17
v -18 20 -12
v -18 20 -13
v -18 20 -14
v -18 20 -15
v -18 20 -16
v -18 20 -17
v -18 21 -12
v -18 21 -13
v -18 21 -14
v -18 21 -15
v -18 21 -16
v -18 21 -17
v -18 22 -12
v -18 22 -13
v -18 22 -14
v -18 22 -15
v -18 22 -16
v -18 22 -17
v -18 23 -12
v -18 23 -13
v -18 23 -14
v -18 23 -15
v -18 23 -16
v -18 23 -17
v -18 24 -12
v -18 24 -13
v -18 24 -14
v -18 24 -15
v -18 24 -16
v -18 24 -17
v -18 25 -12
v -18 25 -13
v -18 25 -14
v -18 25 -15
v -18 25 -16
v -18 25 -17
v -18 26 -12
v -18 26 -13
v -18 26 -14
v -18 26 -15
v -18 26 -16
v -18 26 -17
v -18 27 -12
v -18 27 -13
v -18 27 -14
v -18 27 -15
v -18 27 -16
v -18 27 -17
v -18 28 -12
v -18 28 -13
v -18 28 -14
v -18 28 -15
v -18 28 -16
v -18 28 -17
v -18 29 -12
v -18 29 -13
v -18 29 -14
v -18 29 -15
v -18 29 -16
v -18 29 -17
v -18 30 -12
v -18 30 -13
v -18 30 -14
v -18 30 -15
v -18 30 -16
v -18 30 -17
v -18 34 7
v -18 34 -7
v -18 39 7
v -18 39 -7
v -17 15 -18
v -17 15 -19
v -17 17 -18
v -17 17 -19
v 18 15 19
v 18 15 18
v 18 15 17
v 18 15 -17
v 18 15 -18
v 18 15 -19
v 18 16 -17
v 18 16 -18
v 18 17 19
v 18 17 18
v 18 17 17
v 18 17 -19
v 20 0 20
v 20 0 -20
v 20 40 20
v 20 40 -20
v -20 0 20
v -20 40 20
v 20 0 20
v 20 40 20
v -18 15 18
v -18 17 18
v 17 15 18
v 17 17 18
v 18 15 18
v 18 17 18
v 19 15 18
v 19 17 18
v -19 34 7
v -19 39 7
v -18 34 7
v -18 39 7
v -20 1 -11
v -20 34 -11
v -19 1 -11
v -19 34 -11
v -19 19 -12
v -19 20 -12
v -19 21 -12
v -19 22 -12
v -19 23 -12
v -19 24 -12
v -19 25 -12
v -19 26 -12
v -19 27 -12
v -19 28 -12
v -19 29 -12
v -19 30 -12
v -18 19 -12
v -18 20 -12
v -18 21 -12
v -18 22 -12
v -18 23 -12
v -18 24 -12
v -18 25 -12
v -18 26 -12
v -18 27 -12
v -18 28 -12
v -18 29 -12
v -18 30 -12
v -19 19 -14
v -19 20 -14
v -19 21 -14
v -19 22 -14
v -19 23 -14
v -19 24 -14
v -19 25 -14
v -19 26 -14
v -19 27 -14
v -19 28 -14
v -19 29 -14
v -19 30 -14
v -18 19 -14
v -18 20 -14
v -18 21 -14
v -18 22 -14
v -18 23 -14
v -18 24 -14
v -18 25 -14
v -18 26 -14
v -18 27 -14
v -18 28 -14
v -18 29 -14
v -18 30 -14
v -19 19 -16
v -19 20 -16
v -19 21 -16
v -19 22 -16
v -19 23 -16
v -19 24 -16
v -19 25 -16
v -19 26 -16
v -19 27 -16
v -19 28 -16
v -19 29 -16
v -19 30 -16
v -18 19 -16
v -18 20 -16
v -18 21 -16
v -18 22 -16
v -18 23 -16
v -18 24 -16
v -18 25 -16
v -18 26 -16
v -18 27 -16
v -18 28 -16
v -18 29 -16
v -18 30 -16
v -18 15 -17
v -18 17 -17
v 17 15 -17
v 17 17 -17
v 18 15 -17
v 18 16 -17
v 19 15 -17
v 19 16 -17
v -19 1 -19
v -19 39 -19
v -18 15 -19
v -18 17 -19
v -17 15 -19
v -17 17 -19
v 17 15 -19
v 17 17 -19
v 18 15 -19
v 18 17 -19
v 19 1 -19
v 19 39 -19
v -19 1 19
v -19 15 19
v -19 17 19
v -19 39 19
v -18 15 19
v -18 17 19
v 17 15 19
v 17 17 19
v 18 15 19
v 18 17 19
v 19 1 19
v 19 39 19
v -19 15 17
v -19 17 17
v 17 15 17
v 17 17 17
v 18 15 17
v 18 17 17
v 19 15 17
v 19 17 17
v -20 1 11
v -20 34 11
v -19 1 11
v -19 34 11
v -19 34 -7
v -19 39 -7
v -18 34 -7
v -18 39 -7
v -19 19 -13
v -19 20 -13
v -19 21 -13
v -19 22 -13
v -19 23 -13
v -19 24 -13
v -19 25 -13
v -19 26 -13
v -19 27 -13
v -19 28 -13
v -19 29 -13
v -19 30 -13
v -18 19 -13
v -18 20 -13
v -18 21 -13
v -18 22 -13
v -18 23 -13
v -18 24 -13
v -18 25 -13
v -18 26 -13
v -18 27 -13
v -18 28 -13
v -18 29 -13
v -18 30 -13
v -19 19 -15
v -19 20 -15
v -19 21 -15
v -19 22 -15
v -19 23 -15
v -19 24 -15
v -19 25 -15
v -19 26 -15
v -19 27 -15
v -19 28 -15
v -19 29 -15
v -19 30 -15
v -18 19 -15
v -18 20 -15
v -18 21 -15
v -18 22 -15
v -18 23 -15
v -18 24 -15
v -18 25 -15
v -18 26 -15
v -18 27 -15
v -18 28 -15
v -18 29 -15
v -18 30 -15
v -19 19 -17
v -19 20 -17
v -19 21 -17
v -19 22 -17
v -19 23 -17
v -19 24 -17
v -19 25 -17
v -19 26 -17
v -19 27 -17
v -19 28 -17
v -19 29 -17
v -19 30 -17
v -18 19 -17
v -18 20 -17
v -18 21 -17
v -18 22 -17
v -18 23 -17
v -18 24 -17
v -18 25 -17
v -18 26 -17
v -18 27 -17
v -18 28 -17
v -18 29 -17
v -18 30 -17
v -17 15 -18
v -17 17 -18
v 17 15 -18
v 17 17 -18
v 18 15 -18
v 18 16 -18
v 19 15 -18
v 19 16 -18
v -20 0 -20
v -20 40 -20
v 20 0 -20
v 20 40 -20
v -20 0 20
v 20 0 20
v -20 0 -20
v 20 0 -20
v -19 15 19
v -18 15 19
v 17 15 19
v 18 15 19
v -18 15 18
v 17 15 18
v 18 15 18
v 19 15 18
v -19 15 17
v 17 15 17
v 18 15 17
v 19 15 17
v -18 15 -17
v 17 15 -17
v 18 15 -17
v 19 15 -17
v -18 15 -18
v -17 15 -18
v 17 15 -18
v 18 15 -18
v 19 15 -18
v -18 15 -19
v -17 15 -19
v 17 15 -19
v 18 15 -19
v -19 19 -12
v -18 19 -12
v -19 19 -13
v -18 19 -13
v -19 19 -14
v -18 19 -14
v -19 19 -15
v -18 19 -15
v -19 19 -16
v -18 19 -16
v -19 19 -17
v -18 19 -17
v -19 21 -12
v -18 21 -12
v -19 21 -13
v -18 21 -13
v -19 21 -14
v -18 21 -14
v -19 21 -15
v -18 21 -15
v -19 21 -16
v -18 21 -16
v -19 21 -17
v -18 21 -17
v -19 23 -12
v -18 23 -12
v -19 23 -13
v -18 23 -13
v -19 23 -14
v -18 23 -14
v -19 23 -15
v -18 23 -15
v -19 23 -16
v -18 23 -16
v -19 23 -17
v -18 23 -17
v -19 25 -12
v -18 25 -12
v -19 25 -13
v -18 25 -13
v -19 25 -14
v -18 25 -14
v -19 25 -15
v -18 25 -15
v -19 25 -16
v -18 25 -16
v -19 25 -17
v -18 25 -17
v -19 27 -12
v -18 27 -12
v -19 27 -13
v -18 27 -13
v -19 27 -14
v -18 27 -14
v -19 27 -15
v -18 27 -15
v -19 27 -16
v -18 27 -16
v -19 27 -17
v -18 27 -17
v -19 29 -12
v -18 29 -12
v -19 29 -13
v -18 29 -13
v -19 29 -14
v -18 29 -14
v -19 29 -15
v -18 29 -15
v -19 29 -16
v -18 29 -16
v -19 29 -17
v -18 29 -17
v -20 34 11
v -19 34 11
v -20 34 7
v -19 34 7
v -18 34 7
v -20 34 -7
v -19 34 -7
v -18 34 -7
v -20 34 -11
v -19 34 -11
v -19 39 19
v 19 39 19
v -19 39 7
v -18 39 7
v -19 39 -7
v -18 39 -7
v -19 39 -19
v 19 39 -19
v -19 1 19
v 19 1 19
v -20 1 11
v -19 1 11
v -20 1 -11
v -19 1 -11
v -19 1 -19
v 19 1 -19
v 18 16 -17
v 19 16 -17
v 18 16 -18
v 19 16 -18
v -19 17 19
v -18 17 19
v 17 17 19
v 18 17 19
v -18 17 18
v 17 17 18
v 18 17 18
v 19 17 18
v -19 17 17
v 17 17 17
v 18 17 17
v 19 17 17
v -18 17 -17
v 17 17 -17
v -18 17 -18
v -17 17 -18
v 17 17 -18
v -18 17 -19
v -17 17 -19
v 17 17 -19
v 18 17 -19
v -19 20 -12
v -18 20 -12
v -19 20 -13
v -18 20 -13
v -19 20 -14
v -18 20 -14
v -19 20 -15
v -18 20 -15
v -19 20 -16
v -18 20 -16
v -19 20 -17
v -18 20 -17
v -19 22 -12
v -18 22 -12
v -19 22 -13
v -18 22 -13
v -19 22 -14
v -18 22 -14
v -19 22 -15
v -18 22 -15
v -19 22 -16
v -18 22 -16
v -19 22 -17
v -18 22 -17
v -19 24 -12
v -18 24 -12
v -19 24 -13
v -18 24 -13
v -19 24 -14
v -18 24 -14
v -19 24 -15
v -18 24 -15
v -19 24 -16
v -18 24 -16
v -19 24 -17
v -18 24 -17
v -19 26 -12
v -18 26 -12
v -19 26 -13
v -18 26 -13
v -19 26 -14
v -18 26 -14
v -19 26 -15
v -18 26 -15
v -19 26 -16
v -18 26 -16
v -19 26 -17
v -18 26 -17
v -19 28 -12
v -18 28 -12
v -19 28 -13
v -18 28 -13
v -19 28 -14
v -18 28 -14
v -19 28 -15
v -18 28 -15
v -19 28 -16
v -18 28 -16
v -19 28 -17
v -18 28 -17
v -19 30 -12
v -18 30 -12
v -19 30 -13
v -18 30 -13
v -19 30 -14
v -18 30 -14
v -19 30 -15
v -18 30 -15
v -19 30 -16
v -18 30 -16
v -19 30 -17
v -18 30 -17
v -20 40 20
v 20 40 20
v -20 40 7
v -19 40 7
v -20 40 6
v -19 40 6
v -20 40 -6
v -19 40 -6
v -20 40 -7
v -19 40 -7
v -20 40 -20
v 20 40 -20

# faces
f 3/3/1 2/3/1 1/3/1
f 4/3/1 2/3/1 3/3/1
f 5/3/1 3/3/1 1/3/1
f 8/3/1 2/3/1 4/3/1
f 9/5/1 7/5/1 6/5/1
f 10/5/1 7/5/1 9/5/1
f 11/5/1 7/5/1 10/5/1
f 12/5/1 7/5/1 11/5/1
f 13/3/1 10/3/1 9/3/1
f 13/1/1 11/1/1 10/1/1
f 14/1/1 11/1/1 13/1/1
f 15/1/1 11/1/1 14/1/1
f 16/3/1 12/3/1 11/3/1
f 16/1/1 11/1/1 15/1/1
f 17/1/1 15/1/1 14/1/1
f 17/3/1 16/3/1 15/3/1
f 18/3/1 12/3/1 16/3/1
f 18/3/1 16/3/1 17/3/1
f 19/5/1 9/5/1 6/5/1
f 19/3/1 13/3/1 9/3/1
f 19/3/1 14/3/1 13/3/1
f 20/1/1 17/1/1 14/1/1
f 20/3/1 14/3/1 19/3/1
f 20/1/1 18/1/1 17/1/1
f 21/3/1 12/3/1 18/3/1
f 21/1/1 18/1/1 20/1/1
f 22/5/1 7/5/1 12/5/1
f 22/3/1 12/3/1 21/3/1
f 23/3/1 6/3/1 5/3/1
f 23/5/1 20/5/1 19/5/1
f 23/5/1 22/5/1 21/5/1
f 23/5/1 19/5/1 6/5/1
f 23/5/1 21/5/1 20/5/1
f 24/5/1 22/5/1 23/5/1
f 25/5/1 7/5/1 22/5/1
f 25/5/1 22/5/1 24/5/1
f 26/3/1 8/3/1 7/3/1
f 26/5/1 7/5/1 25/5/1
f 27/3/1 5/3/1 1/3/1
f 27/3/1 23/3/1 5/3/1
f 28/4/1 24/4/1 23/4/1
f 28/3/1 23/3/1 27/3/1
f 29/3/1 25/3/1 24/3/1
f 29/4/1 24/4/1 28/4/1
f 30/4/1 26/4/1 25/4/1
f 30/3/1 25/3/1 29/3/1
f 31/3/1 8/3/1 26/3/1
f 31/4/1 26/4/1 30/4/1
f 32/3/1 2/3/1 8/3/1
f 32/3/1 8/3/1 31/3/1
f 36/6/1 34/6/1 33/6/1
f 37/7/1 35/7/1 34/7/1
f 37/6/1 34/6/1 36/6/1
f 38/7/1 35/7/1 37/7/1
f 45/6/1 40/6/1 39/6/1
f 46/6/1 40/6/1 45/6/1
f 47/6/1 42/6/1 41/6/1
f 48/6/1 42/6/1 47/6/1
f 49/6/1 44/6/1 43/6/1
f 50/6/1 44/6/1 49/6/1
f 53/3/1 52/3/1 51/3/1
f 54/3/1 52/3/1 53/3/1
f 55/3/1 52/3/1 54/3/1
f 56/3/1 52/3/1 55/3/1
f 57/3/1 55/3/1 54/3/1
f 58/3/1 52/3/1 56/3/1
f 59/3/1 53/3/1 51/3/1
f 60/3/1 58/3/1 57/3/1
f 60/3/1 57/3/1 54/3/1
f 61/3/1 59/3/1 51/3/1
f 61/3/1 60/3/1 59/3/1
f 62/3/1 58/3/1 60/3/1
f 62/3/1 60/3/1 61/3/1
f 62/3/1 52/3/1 58/3/1
f 63/3/2 64/3/2 67/3/2
f 67/3/2 64/3/2 68/3/2
f 68/3/2 64/3/2 70/3/2
f 65/3/2 66/3/2 71/3/2
f 71/3/2 66/3/2 72/3/2
f 72/3/2 66/3/2 73/3/2
f 73/3/2 66/3/2 74/3/2
f 74/3/2 66/3/2 75/3/2
f 75/3/2 66/3/2 76/3/2
f 65/3/2 71/3/2 77/3/2
f 72/3/2 73/3/2 78/3/2
f 78/3/2 73/3/2 79/3/2
f 74/3/2 75/3/2 80/3/2
f 80/3/2 75/3/2 81/3/2
f 76/3/2 66/3/2 82/3/2
f 80/3/2 81/3/2 83/3/2
f 81/3/2 82/3/2 83/3/2
f 78/3/2 79/3/2 83/3/2
f 65/3/2 77/3/2 83/3/2
f 79/3/2 80/3/2 83/3/2
f 77/3/2 78/3/2 83/3/2
f 83/3/2 82/3/2 84/3/2
f 84/3/2 82/3/2 85/3/2
f 85/3/2 82/3/2 86/3/2
f 86/3/2 82/3/2 87/3/2
f 82/3/2 66/3/2 88/3/2
f 87/3/2 82/3/2 88/3/2
f 65/3/2 83/3/2 89/3/2
f 84/3/2 85/3/2 90/3/2
f 90/3/2 85/3/2 91/3/2
f 86/3/2 87/3/2 92/3/2
f 92/3/2 87/3/2 93/3/2
f 88/3/2 66/3/2 94/3/2
f 90/3/2 91/3/2 95/3/2
f 93/3/2 94/3/2 95/3/2
f 92/3/2 93/3/2 95/3/2
f 65/3/2 89/3/2 95/3/2
f 91/3/2 92/3/2 95/3/2
f 89/3/2 90/3/2 95/3/2
f 95/3/2 94/3/2 96/3/2
f 96/3/2 94/3/2 97/3/2
f 97/3/2 94/3/2 98/3/2
f 98/3/2 94/3/2 99/3/2
f 94/3/2 66/3/2 100/3/2
f 99/3/2 94/3/2 100/3/2
f 65/3/2 95/3/2 101/3/2
f 96/3/2 97/3/2 102/3/2
f 102/3/2 97/3/2 103/3/2
f 98/3/2 99/3/2 104/3/2
f 104/3/2 99/3/2 105/3/2
f 100/3/2 66/3/2 106/3/2
f 102/3/2 103/3/2 107/3/2
f 105/3/2 106/3/2 107/3/2
f 104/3/2 105/3/2 107/3/2
f 65/3/2 101/3/2 107/3/2
f 103/3/2 104/3/2 107/3/2
f 101/3/2 102/3/2 107/3/2
f 107/3/2 106/3/2 108/3/2
f 108/3/2 106/3/2 109/3/2
f 109/3/2 106/3/2 110/3/2
f 110/3/2 106/3/2 111/3/2
f 106/3/2 66/3/2 112/3/2
f 111/3/2 106/3/2 112/3/2
f 65/3/2 107/3/2 113/3/2
f 108/3/2 109/3/2 114/3/2
f 114/3/2 109/3/2 115/3/2
f 110/3/2 111/3/2 116/3/2
f 116/3/2 111/3/2 117/3/2
f 112/3/2 66/3/2 118/3/2
f 114/3/2 115/3/2 119/3/2
f 117/3/2 118/3/2 119/3/2
f 116/3/2 117/3/2 119/3/2
f 65/3/2 113/3/2 119/3/2
f 115/3/2 116/3/2 119/3/2
f 113/3/2 114/3/2 119/3/2
f 119/3/2 118/3/2 120/3/2
f 120/3/2 118/3/2 121/3/2
f 121/3/2 118/3/2 122/3/2
f 122/3/2 118/3/2 123/3/2
f 118/3/2 66/3/2 124/3/2
f 123/3/2 118/3/2 124/3/2
f 65/3/2 119/3/2 125/3/2
f 120/3/2 121/3/2 126/3/2
f 126/3/2 121/3/2 127/3/2
f 122/3/2 123/3/2 128/3/2
f 128/3/2 123/3/2 129/3/2
f 124/3/2 66/3/2 130/3/2
f 126/3/2 127/3/2 131/3/2
f 129/3/2 130/3/2 131/3/2
f 128/3/2 129/3/2 131/3/2
f 65/3/2 125/3/2 131/3/2
f 127/3/2 128/3/2 131/3/2
f 125/3/2 126/3/2 131/3/2
f 131/3/2 130/3/2 132/3/2
f 132/3/2 130/3/2 133/3/2
f 133/3/2 130/3/2 134/3/2
f 134/3/2 130/3/2 135/3/2
f 130/3/2 66/3/2 136/3/2
f 135/3/2 130/3/2 136/3/2
f 65/3/2 131/3/2 137/3/2
f 132/3/2 133/3/2 138/3/2
f 138/3/2 133/3/2 139/3/2
f 134/3/2 135/3/2 140/3/2
f 140/3/2 135/3/2 141/3/2
f 136/3/2 66/3/2 142/3/2
f 69/3/2 70/3/2 143/3/2
f 70/3/2 64/3/2 143/3/2
f 141/3/2 142/3/2 146/3/2
f 138/3/2 139/3/2 146/3/2
f 140/3/2 141/3/2 146/3/2
f 65/3/2 137/3/2 146/3/2
f 139/3/2 140/3/2 146/3/2
f 137/3/2 138/3/2 146/3/2
f 143/3/2 144/3/2 147/3/2
f 69/3/2 143/3/2 147/3/2
f 147/3/2 144/3/2 148/3/2
f 145/3/2 146/3/2 149/3/2
f 142/3/2 66/3/2 150/3/2
f 149/3/2 146/3/2 150/3/2
f 146/3/2 142/3/2 150/3/2
f 151/6/2 152/6/2 153/6/2
f 153/6/2 152/6/2 154/6/2
f 155/1/2 156/1/2 161/1/2
f 161/1/2 156/1/2 162/1/2
f 157/1/2 158/1/2 163/1/2
f 163/1/2 158/1/2 164/1/2
f 159/1/2 160/1/2 165/1/2
f 165/1/2 160/1/2 166/1/2
f 167/1/2 168/1/2 173/1/2
f 173/1/2 168/1/2 174/1/2
f 169/1/2 170/1/2 175/1/2
f 175/1/2 170/1/2 176/1/2
f 171/1/2 172/1/2 177/1/2
f 177/1/2 172/1/2 178/1/2
f 179/1/2 180/1/2 185/1/2
f 185/1/2 180/1/2 186/1/2
f 181/1/2 182/1/2 187/1/2
f 187/1/2 182/1/2 188/1/2
f 183/1/2 184/1/2 189/1/2
f 189/1/2 184/1/2 190/1/2
f 191/1/2 192/1/2 197/1/2
f 197/1/2 192/1/2 198/1/2
f 193/1/2 194/1/2 199/1/2
f 199/1/2 194/1/2 200/1/2
f 195/1/2 196/1/2 201/1/2
f 201/1/2 196/1/2 202/1/2
f 203/1/2 204/1/2 209/1/2
f 209/1/2 204/1/2 210/1/2
f 205/1/2 206/1/2 211/1/2
f 211/1/2 206/1/2 212/1/2
f 207/1/2 208/1/2 213/1/2
f 213/1/2 208/1/2 214/1/2
f 215/1/2 216/1/2 221/1/2
f 221/1/2 216/1/2 222/1/2
f 217/1/2 218/1/2 223/1/2
f 223/1/2 218/1/2 224/1/2
f 219/1/2 220/1/2 225/1/2
f 225/1/2 220/1/2 226/1/2
f 227/2/2 228/2/2 229/2/2
f 229/2/2 228/2/2 230/2/2
f 231/7/2 232/7/2 233/7/2
f 233/7/2 232/7/2 234/7/2
f 237/6/2 238/6/2 241/6/2
f 239/6/2 240/6/2 242/6/2
f 235/6/2 236/6/2 243/6/2
f 243/6/2 236/6/2 244/6/2
f 241/6/2 242/6/2 245/6/2
f 237/6/2 241/6/2 245/6/2
f 242/6/2 240/6/2 246/6/2
f 245/6/2 242/6/2 246/6/2
f 247/3/2 248/3/2 249/3/2
f 249/3/2 248/3/2 250/3/2
f 253/3/3 252/3/3 251/3/3
f 254/3/3 252/3/3 253/3/3
f 257/6/3 256/6/3 255/6/3
f 258/6/3 256/6/3 257/6/3
f 261/6/3 260/6/3 259/6/3
f 262/6/3 260/6/3 261/6/3
f 265/2/3 264/2/3 263/2/3
f 266/2/3 264/2/3 265/2/3
f 269/3/3 268/3/3 267/3/3
f 270/3/3 268/3/3 269/3/3
f 283/1/3 272/1/3 271/1/3
f 284/1/3 272/1/3 283/1/3
f 285/1/3 274/1/3 273/1/3
f 286/1/3 274/1/3 285/1/3
f 287/1/3 276/1/3 275/1/3
f 288/1/3 276/1/3 287/1/3
f 289/1/3 278/1/3 277/1/3
f 290/1/3 278/1/3 289/1/3
f 291/1/3 280/1/3 279/1/3
f 292/1/3 280/1/3 291/1/3
f 293/1/3 282/1/3 281/1/3
f 294/1/3 282/1/3 293/1/3
f 307/1/3 296/1/3 295/1/3
f 308/1/3 296/1/3 307/1/3
f 309/1/3 298/1/3 297/1/3
f 310/1/3 298/1/3 309/1/3
f 311/1/3 300/1/3 299/1/3
f 312/1/3 300/1/3 311/1/3
f 313/1/3 302/1/3 301/1/3
f 314/1/3 302/1/3 313/1/3
f 315/1/3 304/1/3 303/1/3
f 316/1/3 304/1/3 315/1/3
f 317/1/3 306/1/3 305/1/3
f 318/1/3 306/1/3 317/1/3
f 331/1/3 320/1/3 319/1/3
f 332/1/3 320/1/3 331/1/3
f 333/1/3 322/1/3 321/1/3
f 334/1/3 322/1/3 333/1/3
f 335/1/3 324/1/3 323/1/3
f 336/1/3 324/1/3 335/1/3
f 337/1/3 326/1/3 325/1/3
f 338/1/3 326/1/3 337/1/3
f 339/1/3 328/1/3 327/1/3
f 340/1/3 328/1/3 339/1/3
f 341/1/3 330/1/3 329/1/3
f 342/1/3 330/1/3 341/1/3
f 345/6/3 344/6/3 343/6/3
f 346/6/3 344/6/3 345/6/3
f 349/6/3 348/6/3 347/6/3
f 350/6/3 348/6/3 349/6/3
f 353/3/3 352/3/3 351/3/3
f 354/3/3 352/3/3 353/3/3
f 355/3/3 353/3/3 351/3/3
f 356/3/3 352/3/3 354/3/3
f 357/3/3 355/3/3 351/3/3
f 357/3/3 356/3/3 355/3/3
f 358/3/3 352/3/3 356/3/3
f 358/3/3 356/3/3 357/3/3
f 359/3/3 357/3/3 351/3/3
f 360/3/3 352/3/3 358/3/3
f 361/3/3 359/3/3 351/3/3
f 361/3/3 360/3/3 359/3/3
f 362/3/3 352/3/3 360/3/3
f 362/3/3 360/3/3 361/3/3
f 363/3/4 364/3/4 367/3/4
f 365/3/4 366/3/4 368/3/4
f 363/3/4 367/3/4 369/3/4
f 367/3/4 368/3/4 369/3/4
f 368/3/4 366/3/4 370/3/4
f 369/3/4 368/3/4 370/3/4
f 363/3/4 369/3/4 371/3/4
f 370/3/4 366/3/4 372/3/4
f 363/3/4 371/3/4 373/3/4
f 371/3/4 372/3/4 373/3/4
f 372/3/4 366/3/4 374/3/4
f 373/3/4 372/3/4 374/3/4
f 375/6/4 376/6/4 377/6/4
f 377/6/4 376/6/4 378/6/4
f 379/6/4 380/6/4 381/6/4
f 381/6/4 380/6/4 382/6/4
f 383/3/4 384/3/4 385/3/4
f 385/3/4 384/3/4 386/3/4
f 387/2/4 388/2/4 389/2/4
f 389/2/4 388/2/4 390/2/4
f 391/1/4 392/1/4 403/1/4
f 403/1/4 392/1/4 404/1/4
f 393/1/4 394/1/4 405/1/4
f 405/1/4 394/1/4 406/1/4
f 395/1/4 396/1/4 407/1/4
f 407/1/4 396/1/4 408/1/4
f 397/1/4 398/1/4 409/1/4
f 409/1/4 398/1/4 410/1/4
f 399/1/4 400/1/4 411/1/4
f 411/1/4 400/1/4 412/1/4
f 401/1/4 402/1/4 413/1/4
f 413/1/4 402/1/4 414/1/4
f 415/1/4 416/1/4 427/1/4
f 427/1/4 416/1/4 428/1/4
f 417/1/4 418/1/4 429/1/4
f 429/1/4 418/1/4 430/1/4
f 419/1/4 420/1/4 431/1/4
f 431/1/4 420/1/4 432/1/4
f 421/1/4 422/1/4 433/1/4
f 433/1/4 422/1/4 434/1/4
f 423/1/4 424/1/4 435/1/4
f 435/1/4 424/1/4 436/1/4
f 425/1/4 426/1/4 437/1/4
f 437/1/4 426/1/4 438/1/4
f 439/1/4 440/1/4 451/1/4
f 451/1/4 440/1/4 452/1/4
f 441/1/4 442/1/4 453/1/4
f 453/1/4 442/1/4 454/1/4
f 443/1/4 444/1/4 455/1/4
f 455/1/4 444/1/4 456/1/4
f 445/1/4 446/1/4 457/1/4
f 457/1/4 446/1/4 458/1/4
f 447/1/4 448/1/4 459/1/4
f 459/1/4 448/1/4 460/1/4
f 449/1/4 450/1/4 461/1/4
f 461/1/4 450/1/4 462/1/4
f 463/6/4 464/6/4 465/6/4
f 465/6/4 464/6/4 466/6/4
f 467/6/4 468/6/4 469/6/4
f 469/6/4 468/6/4 470/6/4
f 471/3/4 472/3/4 473/3/4
f 473/3/4 472/3/4 474/3/4
f 477/3/5 476/3/5 475/3/5
f 478/3/5 476/3/5 477/3/5
f 483/6/5 480/6/5 479/6/5
f 484/6/5 482/6/5 481/6/5
f 485/6/5 482/6/5 484/6/5
f 487/6/5 483/6/5 479/6/5
f 487/6/5 486/6/5 485/6/5
f 487/6/5 485/6/5 484/6/5
f 487/6/5 484/6/5 483/6/5
f 488/6/5 486/6/5 487/6/5
f 489/6/5 486/6/5 488/6/5
f 490/6/5 486/6/5 489/6/5
f 492/6/5 489/6/5 488/6/5
f 493/6/5 489/6/5 492/6/5
f 495/6/5 492/6/5 491/6/5
f 495/6/5 494/6/5 493/6/5
f 495/6/5 493/6/5 492/6/5
f 496/6/5 494/6/5 495/6/5
f 497/6/5 494/6/5 496/6/5
f 498/6/5 494/6/5 497/6/5
f 499/6/5 494/6/5 498/6/5
f 500/7/5 496/7/5 495/7/5
f 501/7/5 496/7/5 500/7/5
f 502/6/5 498/6/5 497/6/5
f 503/6/5 498/6/5 502/6/5
f 506/1/5 505/1/5 504/1/5
f 507/1/5 505/1/5 506/1/5
f 510/1/5 509/1/5 508/1/5
f 511/1/5 509/1/5 510/1/5
f 514/1/5 513/1/5 512/1/5
f 515/1/5 513/1/5 514/1/5
f 518/1/5 517/1/5 516/1/5
f 519/1/5 517/1/5 518/1/5
f 522/1/5 521/1/5 520/1/5
f 523/1/5 521/1/5 522/1/5
f 526/1/5 525/1/5 524/1/5
f 527/1/5 525/1/5 526/1/5
f 530/1/5 529/1/5 528/1/5
f 531/1/5 529/1/5 530/1/5
f 534/1/5 533/1/5 532/1/5
f 535/1/5 533/1/5 534/1/5
f 538/1/5 537/1/5 536/1/5
f 539/1/5 537/1/5 538/1/5
f 542/1/5 541/1/5 540/1/5
f 543/1/5 541/1/5 542/1/5
f 546/1/5 545/1/5 544/1/5
f 547/1/5 545/1/5 546/1/5
f 550/1/5 549/1/5 548/1/5
f 551/1/5 549/1/5 550/1/5
f 554/1/5 553/1/5 552/1/5
f 555/1/5 553/1/5 554/1/5
f 558/1/5 557/1/5 556/1/5
f 559/1/5 557/1/5 558/1/5
f 562/1/5 561/1/5 560/1/5
f 563/1/5 561/1/5 562/1/5
f 566/1/5 565/1/5 564/1/5
f 567/1/5 565/1/5 566/1/5
f 570/1/5 569/1/5 568/1/5
f 571/1/5 569/1/5 570/1/5
f 574/1/5 573/1/5 572/1/5
f 575/1/5 573/1/5 574/1/5
f 578/3/5 577/3/5 576/3/5
f 579/3/5 577/3/5 578/3/5
f 581/5/5 579/5/5 578/5/5
f 582/2/5 580/2/5 579/2/5
f 582/5/5 579/5/5 581/5/5
f 583/2/5 580/2/5 582/2/5
f 584/3/5 582/3/5 581/3/5
f 585/3/5 582/3/5 584/3/5
f 588/3/5 587/3/5 586/3/5
f 589/3/5 587/3/5 588/3/5
f 591/3/5 587/3/5 589/3/5
f 592/3/5 591/3/5 590/3/5
f 593/3/5 587/3/5 591/3/5
f 593/3/5 591/3/5 592/3/5
f 594/3/6 595/3/6 597/3/6
f 596/3/6 597/3/6 598/3/6
f 597/3/6 595/3/6 599/3/6
f 598/3/6 597/3/6 599/3/6
f 599/3/6 595/3/6 600/3/6
f 600/3/6 595/3/6 601/3/6
f 602/6/6 603/6/6 604/6/6
f 604/6/6 603/6/6 605/6/6
f 606/6/6 607/6/6 610/6/6
f 608/6/6 609/6/6 611/6/6
f 611/6/6 609/6/6 612/6/6
f 606/6/6 610/6/6 614/6/6
f 612/6/6 613/6/6 614/6/6
f 611/6/6 612/6/6 614/6/6
f 610/6/6 611/6/6 614/6/6
f 614/6/6 613/6/6 615/6/6
f 615/6/6 613/6/6 616/6/6
f 616/6/6 613/6/6 617/6/6
f 615/6/6 616/6/6 619/6/6
f 618/6/6 619/6/6 620/6/6
f 620/6/6 619/6/6 621/6/6
f 619/6/6 616/6/6 622/6/6
f 621/6/6 619/6/6 622/6/6
f 620/7/6 621/7/6 623/7/6
f 623/7/6 621/7/6 624/7/6
f 622/6/6 616/6/6 625/6/6
f 625/6/6 616/6/6 626/6/6
f 627/1/6 628/1/6 629/1/6
f 629/1/6 628/1/6 630/1/6
f 631/1/6 632/1/6 633/1/6
f 633/1/6 632/1/6 634/1/6
f 635/1/6 636/1/6 637/1/6
f 637/1/6 636/1/6 638/1/6
f 639/1/6 640/1/6 641/1/6
f 641/1/6 640/1/6 642/1/6
f 643/1/6 644/1/6 645/1/6
f 645/1/6 644/1/6 646/1/6
f 647/1/6 648/1/6 649/1/6
f 649/1/6 648/1/6 650/1/6
f 651/1/6 652/1/6 653/1/6
f 653/1/6 652/1/6 654/1/6
f 655/1/6 656/1/6 657/1/6
f 657/1/6 656/1/6 658/1/6
f 659/1/6 660/1/6 661/1/6
f 661/1/6 660/1/6 662/1/6
f 663/1/6 664/1/6 665/1/6
f 665/1/6 664/1/6 666/1/6
f 667/1/6 668/1/6 669/1/6
f 669/1/6 668/1/6 670/1/6
f 671/1/6 672/1/6 673/1/6
f 673/1/6 672/1/6 674/1/6
f 675/1/6 676/1/6 677/1/6
f 677/1/6 676/1/6 678/1/6
f 679/1/6 680/1/6 681/1/6
f 681/1/6 680/1/6 682/1/6
f 683/1/6 684/1/6 685/1/6
f 685/1/6 684/1/6 686/1/6
f 687/1/6 688/1/6 689/1/6
f 689/1/6 688/1/6 690/1/6
f 691/1/6 692/1/6 693/1/6
f 693/1/6 692/1/6 694/1/6
f 695/1/6 696/1/6 697/1/6
f 697/1/6 696/1/6 698/1/6
f 699/3/6 700/3/6 701/3/6
f 701/3/6 700/3/6 702/3/6
f 701/4/6 702/4/6 703/4/6
f 702/3/6 700/3/6 704/3/6
f 703/4/6 702/4/6 704/4/6
f 703/3/6 704/3/6 705/3/6
f 704/3/6 700/3/6 706/3/6
f 705/3/6 704/3/6 706/3/6
f 705/4/6 706/4/6 707/4/6
f 706/3/6 700/3/6 708/3/6
f 707/4/6 706/4/6 708/4/6
f 707/3/6 708/3/6 709/3/6
f 708/3/6 700/3/6 710/3/6
f 709/3/6 708/3/6 710/3/6
